<?xml version="1.0" encoding="utf-8"?>
<!-- Generator: Adobe Illustrator 23.0.6, SVG Export Plug-In . SVG Version: 6.00 Build 0)  -->
<svg version="1.1" id="Layer_1" xmlns="http://www.w3.org/2000/svg" xmlns:xlink="http://www.w3.org/1999/xlink" x="0px" y="0px"
	 viewBox="0 0 772.6 778.8" style="enable-background:new 0 0 772.6 778.8;" xml:space="preserve">
<style type="text/css">
	.st0{fill:url(#SVGID_1_);}
	.st1{stroke:url(#Outline_1_);stroke-width:20;stroke-miterlimit:10;}
	.st2{fill:url(#SVGID_2_);stroke:#000000;stroke-miterlimit:10;}
	.st3{fill:url(#SVGID_3_);stroke:#000000;stroke-miterlimit:10;}
	.st4{fill:url(#Face_1_);}
	.st5{fill:url(#SVGID_4_);}
	.st6{fill:url(#SVGID_5_);}
	.st7{fill:#0D0F0D;}
	.st8{fill:#FFFFFF;stroke:#FFFFFF;stroke-width:9;stroke-linecap:round;stroke-miterlimit:10;}
	.st9{fill:url(#SVGID_6_);}
	.st10{fill:url(#SVGID_7_);}
	.st11{fill:url(#SVGID_8_);}
	.st12{fill:none;stroke:#F2F2F2;stroke-width:10;stroke-miterlimit:10;}
	.st13{fill:#FFFFFF;stroke:#FFFFFF;stroke-linecap:round;stroke-miterlimit:10;}
	.st14{fill:#FFFFFF;}
	.st15{display:none;}
</style>
<linearGradient id="SVGID_1_" gradientUnits="userSpaceOnUse" x1="386.0751" y1="97.6153" x2="386.0751" y2="820.719">
	<stop  offset="0" style="stop-color:#1A479E"/>
	<stop  offset="0.7173" style="stop-color:#236ED1"/>
	<stop  offset="1" style="stop-color:#277FE7"/>
</linearGradient>
<circle class="st0" cx="386.1" cy="402.3" r="363.2"/>
<g>
	<path d="M386.1,79.1c43.7,0,86,8.5,125.8,25.4c38.5,16.3,73.1,39.6,102.8,69.3s53,64.3,69.3,102.8c16.8,39.8,25.4,82.1,25.4,125.8
		s-8.5,86-25.4,125.8c-16.3,38.5-39.6,73.1-69.3,102.8c-29.7,29.7-64.3,53-102.8,69.3c-39.8,16.8-82.1,25.4-125.8,25.4
		s-86-8.5-125.8-25.4c-38.5-16.3-73.1-39.6-102.8-69.3c-29.7-29.7-53-64.3-69.3-102.8C71.4,488.3,62.9,446,62.9,402.3
		s8.5-86,25.4-125.8c16.3-38.5,39.6-73.1,69.3-102.8s64.3-53,102.8-69.3C300.1,87.6,342.4,79.1,386.1,79.1 M386.1,39.1
		c-200.6,0-363.2,162.6-363.2,363.2s162.6,363.2,363.2,363.2s363.2-162.6,363.2-363.2S586.7,39.1,386.1,39.1L386.1,39.1z"/>
</g>
<linearGradient id="Outline_1_" gradientUnits="userSpaceOnUse" x1="389.6522" y1="20.2026" x2="389.6522" y2="611.3667">
	<stop  offset="0" style="stop-color:#1948A0"/>
	<stop  offset="0.3904" style="stop-color:#1D54AF"/>
	<stop  offset="1" style="stop-color:#246DCF"/>
</linearGradient>
<path id="Outline" class="st1" d="M97.1,601.4c-2.6,0.2-4.8-1.4-6.2-2.8c-1-1.8-2-3.6-3.1-5.4c-0.9-1.6-1.8-3.3-2.7-4.9
	c16.4-35.2,24.6-50.3,29.1-57c0.5-0.8,2.8-4.1,5.5-8.7c4.7-7.9,7.5-13.9,9.4-17.5c4.1-7.7,10.4-19.1,21.1-37.6
	c6.9-11.9,10-16.5,14.3-22.9c9.3-13.7,18-25.2,32.9-33.5c5-2.8,9.5-4,33.2-10.3c39.1-10.3,60.7-12.9,60.5-16.7
	c-0.1-2-6.2-2.9-13.6-4.7c-32.1-7.7-48.1-14.7-52.6-16.7c0,0-9.1-4.2-20.4-12.5c-4.2-3.1-7.1-5.9-10-10.2c-2.9-4.4-5.5-10.4-6.4-21
	c-1.3-16.4,2.8-29.5,4.1-34.3c4-15,11.2-32.4,25.4-66.6l0,0c4.4-10.6,16.5-39.3,34-68.1c15.4-25.3,31.2-50.9,60-75.3
	c14.9-12.7,40.5-31.1,78.2-43.9c40.6,14.7,67.9,35.4,83.6,49.3c28.5,25.2,44.4,51.1,57,71.5c15,24.3,23.8,44.7,34,68.1
	c11.6,26.6,19.8,49.6,25.4,66.6c0,0,5.1,18.4,4.1,34.3c0,0-0.7,12.2-6.1,20.6c-0.1,0.2-0.3,0.4-0.3,0.4c-3.1,4.7-6.7,7.8-10,10.2
	c-12,8.9-20.4,12.5-20.4,12.5c-27.7,6.9-66.2,16.3-66.2,21.4c0,5,38.1,8.6,79.5,21.8c3.4,1.1,8.7,2.8,15,6.2
	c3.6,1.9,18,9.9,32.4,29.5c6.6,9,9.9,16,15.6,27.7c0,0,0,0,0,0c2.3,4.3,5.7,10.9,9.7,19.1c3.6,7.4,4.4,10.7,7.7,16.7
	c2.1,3.8,4.1,7,5.8,9.5c1.5,2.2,2.8,3.9,3.4,4.7c0.2,0.2,0.3,0.4,0.3,0.4c1.2,1.5,10.9,17.4,33.3,54.8c-0.7,1.6-1.8,3.9-3.3,6.6
	c-1.8,3.3-3.7,6.8-6.2,9.8c0,0-3.3,4.1-8.8,7.6c-16.1,10.3-547.4-56.6-565.7-17C108.8,585.9,104.6,600.9,97.1,601.4z"/>
<path id="Hoody" d="M83.1,605c5.8-13.2,10.6-24,14-31.4c8.6-19.1,27.9-61.4,52.1-106.1c2.6-4.7,7.4-12.7,14.3-22.9
	c9.3-13.7,18-25.2,32.9-33.5c5-2.8,9.5-4,33.2-10.3c39.1-10.3,60.7-12.9,60.5-16.7c-0.1-2-6.2-2.9-13.6-4.7
	c-32.1-7.7-48.1-14.7-52.6-16.7c0,0-9.1-4.2-20.4-12.5c-4.2-3.1-7.1-5.9-10-10.2c-2.9-4.4-5.5-10.4-6.4-21
	c-1.3-16.4,2.8-29.5,4.1-34.3c4-15,11.2-32.4,25.4-66.6c4.4-10.6,16.5-39.3,34-68.1c15.4-25.3,31.2-50.9,60-75.3
	C325.7,62,351.3,43.6,389,30.8c40.6,14.7,67.9,35.4,83.6,49.3c28.5,25.2,44.4,51.1,57,71.5c15,24.3,23.8,44.7,34,68.1
	c11.6,26.6,19.8,49.6,25.4,66.6c0,0,5.1,18.4,4.1,34.3c0,0-0.7,12.2-6.1,20.6c-0.1,0.2-0.3,0.4-0.3,0.4c-3.1,4.7-6.7,7.8-10,10.2
	c-12,8.9-20.4,12.5-20.4,12.5c-27.7,6.9-66.2,16.3-66.2,21.4c0,5,38.1,8.6,79.5,21.8c3.4,1.1,8.7,2.8,15,6.2
	c3.6,1.9,18,9.9,32.4,29.5c6.6,9,9.9,16,15.6,27.7c16.3,33.4,12.2,21.1,40,77.8c5.7,11.6,13.4,27.4,22.3,46.4
	c-2,2.7-5.1,6.8-8.9,11.8c-5,6.5-14.7,17.6-18,22.8c-9.2,14.1-34.3,36-60.9,39c-6.9,0.8-19.3,0.9-21.9,7.5c-0.9,2.2-0.3,4.1,0,5.6
	c2.6,12.8-5.9,29.8-14.8,35.8c-9,6.1-20.8,2.3-30.2,0c-0.4-0.1-26.5-0.1-78.9,0c-139.5,0.2-209.2,0.2-215.1,1
	c0,0-50.6,5.4-55.6-10.1c-0.7-2.3,0-4-1-22.7c-0.3-4.9-0.5-7.7-2.5-10.3c-2.5-3.2-6.1-3.8-13.5-5.8c-10.4-2.8-7.4-2.7-15.3-4.7
	c-4.6-1.2-19.7-5.8-21.9-6.6c-11.3-3.7-19.9-12.4-29.9-22.6C100,629.4,91.2,619.2,83.1,605z"/>
<g id="Hoody_Strings">
	<linearGradient id="SVGID_2_" gradientUnits="userSpaceOnUse" x1="314.4402" y1="450.8324" x2="314.4402" y2="481.9735">
		<stop  offset="0" style="stop-color:#79B5FC"/>
		<stop  offset="0.1088" style="stop-color:#6DADF9"/>
		<stop  offset="0.4955" style="stop-color:#4794EF"/>
		<stop  offset="0.8062" style="stop-color:#3085E9"/>
		<stop  offset="1" style="stop-color:#277FE7"/>
	</linearGradient>
	<path class="st2" d="M309.7,434.2c3.1-2.5,6.1-5.1,9.2-7.6c0.2,24.3,0.5,48.6,0.7,72.9c-3.5,0-6.9,0-10.4,0
		C309.4,477.7,309.6,456,309.7,434.2z"/>
	
		<linearGradient id="SVGID_3_" gradientUnits="userSpaceOnUse" x1="293.2171" y1="450.8324" x2="293.2171" y2="481.9735" gradientTransform="matrix(-1 0 0 1 755.3325 0)">
		<stop  offset="0" style="stop-color:#79B5FC"/>
		<stop  offset="0.1088" style="stop-color:#6DADF9"/>
		<stop  offset="0.4955" style="stop-color:#4794EF"/>
		<stop  offset="0.8062" style="stop-color:#3085E9"/>
		<stop  offset="1" style="stop-color:#277FE7"/>
	</linearGradient>
	<path class="st3" d="M467.3,434.2c-3.1-2.5-6.1-5.1-9.2-7.6c-0.4,24.2-0.8,48.4-1.2,72.6c3.5,0.1,6.9,0.2,10.4,0.2
		C467.3,477.7,467.3,456,467.3,434.2z"/>
</g>
<linearGradient id="Face_1_" gradientUnits="userSpaceOnUse" x1="387.4737" y1="381.3066" x2="388.042" y2="164.8267">
	<stop  offset="0" style="stop-color:#7FE251"/>
	<stop  offset="0.5594" style="stop-color:#4CC837"/>
	<stop  offset="1" style="stop-color:#28B624"/>
</linearGradient>
<path id="Face" class="st4" d="M304.9,313.4c13.6,22,24.4,35.4,27.4,39.1c15.8,19.3,25.2,26,30.9,29.6c13,8.2,21.1,9.1,26.4,8.9
	c5.7-0.2,10.6-1.8,16.6-4.8c8.3-4.1,22.6-13.1,51.3-50.9c9.5-12.5,14.5-20.2,16.5-23.4c10-15.6,15.9-24.9,19.5-38.8
	c0.5-1.7,3.2-12.5,2.5-26.6c-0.7-15.7-4.9-20.7-7.3-22.9c-2.2-2-4.3-3-5.8-3.6c-20.2-9.1-40.5-13.1-40.5-13.1
	c-10.7-1.3-20.4-3.7-35.5-4.7c-37.4-2.4-65.7,2.8-76.9,5.1c-25.1,5.3-37.8,8.2-44.6,18.1c-11,16-3.9,39-0.4,50.7
	C288.3,286.5,293.8,295.5,304.9,313.4z"/>
<g id="Eyes">
	<g>
		<path d="M359.3,266.8c-11.9-12.5-25-24.2-40.1-32.7c-10.3-5.8-21.4-8.9-32.8-4.4c-10,3.9-18,13.2-20.1,23.7
			c-1.4,7-0.3,14.4,1.9,21.2c1.8,5.5,4.3,10.7,8,15.1c4.4,5.3,10.3,9,16.1,12.6c5.7,3.6,11.4,7.3,17.2,10.8
			c4,2.5,10.8,6.5,20.1,10.5c3.4,1.4,6.2,2.5,8.3,3.2c-2-1.1-4.7-2.5-7.8-4.4c-2.7-1.6-4.7-2.9-6.5-4.1c-6.3-4.2-12.5-8.3-18.1-13.4
			c-7-6.4-13.5-13.9-18.2-22c-1.7-2.9-3.3-5.7-4.6-9.9c-1.2-4-1.4-7-1.6-10.9c-0.4-6.2-0.6-9.8,0.9-14.3c0.9-2.9,2.1-6.6,5.6-9.3
			c4.1-3.1,8.8-3,12.9-2.8c1.4,0,5.7,0.3,13.1,3c3.2,1.2,5.6,2.4,17.4,9.2c8,4.6,12.1,7,14.8,8.8C350.5,259.8,355,263.2,359.3,266.8
			z"/>
		<path d="M418.6,267.1c4.1-4.9,7.4-8.4,9.3-10.2c7.9-7.8,16.9-14.7,26.3-20.5c7.2-4.4,15.1-8.4,23.6-9.1c7.3-0.6,15.6,0.2,21.5,4.9
			c12,9.5,9.5,31.4,4.9,44.1c-7.7,21.1-27.3,32.2-42.8,41c-8.7,4.9-16.3,8-21.6,9.9c16-9.4,32.5-19.5,44-34.4c2.2-2.9,4.2-5.8,6-8.9
			c1.7-3,4.1-7.2,5.9-12.9c1.9-6.1,4.9-16,0.3-25.3c-1-1.9-3.1-6.1-7.7-8.4c-3.6-1.8-7-1.7-9.8-1.6c-4.2,0.2-7.3,1.3-13.4,3.4
			c-1.5,0.5-4.1,1.5-7.4,3c-2.4,1.1-4.3,2.1-8.1,4.2c-0.5,0.2-2.8,1.5-4.6,2.5c-6.5,3.7-11.9,7.5-16.2,10.7
			C426.2,261.3,422.6,263.9,418.6,267.1z"/>
	</g>
	<g>
		<path d="M295.3,251.6c0.6-0.6,2.5-2.5,12.1-1.6c7.8,0.8,24.6,2.7,40.7,16.6c17.9,15.4,32.3,43.2,24.8,51.6
			c-7.5,8.4-35-1-52.4-15.4C301.1,286.5,288.4,259,295.3,251.6z"/>
		<path d="M480.6,251.6c-0.6-0.6-2.5-2.5-12.1-1.6c-7.8,0.8-24.6,2.7-40.7,16.6c-17.9,15.4-32.3,43.2-24.8,51.6
			c7.5,8.4,35-1,52.4-15.4C474.8,286.5,487.5,259,480.6,251.6z"/>
	</g>
</g>
<g>
	<linearGradient id="SVGID_4_" gradientUnits="userSpaceOnUse" x1="295.095" y1="405.6898" x2="237.0173" y2="305.3537">
		<stop  offset="0" style="stop-color:#79B5FC"/>
		<stop  offset="0.2336" style="stop-color:#75B3FB"/>
		<stop  offset="0.4497" style="stop-color:#6AABF8"/>
		<stop  offset="0.6588" style="stop-color:#579FF3"/>
		<stop  offset="0.8623" style="stop-color:#3D8EED"/>
		<stop  offset="1" style="stop-color:#277FE7"/>
	</linearGradient>
	<path class="st5" d="M248.8,247.8c-1.9,0.6-4.7,1.7-7.6,3.5c-3.9,2.4-7.2,5.6-12.2,12.5c-6.3,8.9-10.1,16.7-11.9,20.5
		c-2.1,4.6-3.9,10-7.6,20.9c-0.9,2.7-2.5,7.6-3.4,14.1c-0.9,6.5-0.2,9,0.3,10.4c1.6,4.5,5.2,7,7.3,8.4c10.9,7.3,24.9,11.1,30.3,12.7
		c14.4,4.2,24.5,8.5,32.7,11.9c15.4,6.5,21.2,10.5,25.8,14.6c9.3,8.2,11.9,15.2,12.6,17.3c2.2,6.4,2,11.9,1.7,14.8
		c-0.9,9.6-5.6,16.3-7.7,19c1.9-1.3,5-3.6,7.5-7.5c2.3-3.6,3.1-6.8,3.5-8.8c0.4-1.7,1.5-7.2,0.1-15.3c-0.4-2.1-2.2-11.6-10.1-22.7
		c-4.4-6.3-8.6-9.9-16.1-16.5c-11.3-9.9-13.1-9.1-20.6-16.9c-7-7.2-11-13.8-12.7-16.5c-1.8-3-4.5-8-6.9-14.5
		c-2.5-6.8-3.8-13-4.5-17.8c-1.1-5.9-1.7-11.1-2-15.4c-0.1-1.9-0.4-7.2-0.1-14.3C247.6,256.8,248.1,251.9,248.8,247.8z"/>
	
		<linearGradient id="SVGID_5_" gradientUnits="userSpaceOnUse" x1="353.0731" y1="405.389" x2="295.1148" y2="305.2591" gradientTransform="matrix(-1 0 0 1 834.1149 0)">
		<stop  offset="0" style="stop-color:#79B5FC"/>
		<stop  offset="0.2336" style="stop-color:#75B3FB"/>
		<stop  offset="0.4497" style="stop-color:#6AABF8"/>
		<stop  offset="0.6588" style="stop-color:#579FF3"/>
		<stop  offset="0.8623" style="stop-color:#3D8EED"/>
		<stop  offset="1" style="stop-color:#277FE7"/>
	</linearGradient>
	<path class="st6" d="M527.2,248.1c2.8,0.8,6.9,2.3,11,5.4c4.5,3.3,7.2,7.4,12.2,15.5c3,4.7,7.5,12,11.1,21.8
		c0.6,1.5,1.2,3.5,2.6,7.6c1.8,5.3,2.6,8.2,4.3,13.6c2,6.7,2.8,9.5,2.4,13.1c-0.3,2.4-0.9,4-1.2,4.8c0,0-1.2,2.9-3.7,5.3
		c-8.6,8.5-34.7,16.1-34.7,16.1c-15.1,4.4-25.2,8.7-33.4,12.1c-12.5,5.2-18.9,8.8-25.2,14.6c-8.7,8-11.1,14.8-11.9,17.4
		c-0.3,1.1-1.6,5.7-1.3,11.8c0.5,10.2,5.2,17.7,7.9,21.3c-2.2-1.6-5.5-4.4-8.3-8.8c-3.3-5.3-4.1-10.1-4.2-11.1
		c-0.2-1.4-0.7-5,0.5-11.1c2.1-10.8,7.3-18.8,10.2-22.7c3.7-5.1,7.3-8.2,12.9-13.1c5.6-4.9,7.2-5.5,14.6-11.9
		c4.4-3.8,7.3-6.3,10.8-10.2c2.6-2.8,6.8-7.4,11.1-14.4c3.3-5.4,5.1-9.9,6.5-13.2c2-4.9,4.3-11.5,5.9-19.8c1-16.7,1.5-28.9,1.5-31.8
		c0-1.7-0.2-3.3-0.2-3.3C528.2,253.4,527.7,250.2,527.2,248.1z"/>
</g>
<g id="Computer_1_">
	<path class="st7" d="M571,722.8H218.8c-3.1,0-5.7,2.6-5.7,5.7v1.9c0,3.1,2.6,5.7,5.7,5.7H571c3.1,0,5.7-2.6,5.7-5.7v-1.9
		C576.7,725.3,574.1,722.8,571,722.8z"/>
	<g id="C">
		<line class="st8" x1="224.6" y1="740.3" x2="568.8" y2="740.3"/>
		<g id="Computer">
			<g>
				
					<radialGradient id="SVGID_6_" cx="388.1826" cy="552.5128" r="97.2912" fx="354.4776" fy="551.9633" gradientUnits="userSpaceOnUse">
					<stop  offset="0.2381" style="stop-color:#2D94D5"/>
					<stop  offset="1" style="stop-color:#0953A6"/>
				</radialGradient>
				<circle class="st9" cx="381.7" cy="606.4" r="69"/>
				<path d="M332.3,655.2c1.3-0.4,3.2-0.9,5.4-1.6c3.2-1,9.1-2.9,18.9-7.2c10.5-4.6,18.4-8.8,21.3-10.3c0,0,8.4-4.5,16.5-9.5
					c0.7-0.4,1.7-1.1,3-1.9c1-0.6,1.7-1.1,2.8-1.9c2.1-1.4,3.6-2.5,4.5-3.1c3.5-2.4,6.5-5,7.6-6c4.6-4,9.6-9,9.4-9.4
					c-0.4-0.4-10.9,8.4-17.9,13.2c-4,2.7-6.7,4.4-7.6,5c-0.5,0.3-1,0.6-1.6,1c-3.8,2.3-6.7,4-8.4,4.9c-5.9,3.3-9.8,5.6-11.4,6.5
					c-11.1,6.2-39.7,16.2-44.3,17.8L332.3,655.2z"/>
				<linearGradient id="SVGID_7_" gradientUnits="userSpaceOnUse" x1="285.3793" y1="630.601" x2="421.6458" y2="630.601">
					<stop  offset="7.185093e-02" style="stop-color:#BE0621"/>
					<stop  offset="0.9866" style="stop-color:#F5405A"/>
				</linearGradient>
				<path class="st10" d="M312.6,619.1c-0.1-0.1-1.1,0.5-3.2,1.6c-0.8,0.4-1.9,1-3.2,1.8c-0.7,0.4-1.8,1-3.2,2
					c-1.7,1.1-4.1,2.7-6.5,4.6c-2,1.6-3.9,3.2-5.9,5.6c-1.9,2.3-5.8,7.2-5,13.3c0.1,1,0.3,2.2,1,3.4c2.5,4.4,9.1,4.9,14.6,5.3
					c9.6,0.7,17.4-1.1,24.4-2.7c2.7-0.6,5.5-1.4,5.5-1.4s1.5-0.4,3.2-0.9c2.5-0.8,10.4-3.2,16.2-5.4c11.5-4.3,20.7-9.3,27.8-13.1
					c4-2.1,14.6-8,27.6-16.9c8.8-6,16.1-11.6,15.9-11.8c-0.1-0.1-3.1,2-13.1,8.3c-1.9,1.2-3.9,2.4-6.6,4c-2.7,1.6-5,2.7-7,3.7
					c-5.1,2.6-11.3,5.7-20,9.4c-3.9,1.7-6.9,2.8-9.1,3.7c-7.2,2.8-12.7,4.6-13.8,5c-7,2.4-12.3,4.1-18.4,5.4
					c-9.8,2.2-25.1,5.6-30.9-1.7c-2.2-2.7-2.2-6-2.2-6.6C300.5,626.6,313,619.7,312.6,619.1z"/>
				<path d="M370.6,651.4c0.2,0.6,8.3-1.6,15.4-4.7c0.3-0.1,0,0,8.5-3.9c5-2.3,5.7-2.6,7.1-3.3c3.7-1.8,6.5-3.4,8.4-4.5
					c2.7-1.5,3.2-1.9,7.1-4.1c2.3-1.3,4.1-2.4,5.4-3.1c0,0,0,0,0,0l0,0c6.4-3.8,9.4-5.9,14.7-9.2c0,0,6.5-4.2,13-9.6
					c0.5-0.4,1.5-1.3,2.1-2.9c0.1-0.4,0.7-2,0.3-2.4c-1.5-1.8-17.4,9.9-40.8,25c-4.4,2.8-6.6,4.3-9.1,5.8
					C383.6,645.8,370.3,650.6,370.6,651.4z"/>
				<linearGradient id="SVGID_8_" gradientUnits="userSpaceOnUse" x1="370.6264" y1="602.6077" x2="480.5141" y2="602.6077">
					<stop  offset="7.185093e-02" style="stop-color:#DC9236"/>
					<stop  offset="0.9866" style="stop-color:#F3DE5B"/>
				</linearGradient>
				<path class="st11" d="M437,565.9c-0.2-0.5,5.7-4.7,13.6-8.1c5.9-2.5,10.9-4.6,17.2-3.9c3.3,0.3,9,0.9,11.5,5
					c2.6,4.2,0.4,9.6-1.4,14.2c-1,2.5-2.6,5.9-7.7,12.1c-3.3,4-8,9.3-16.2,16.7c-0.4,0.4-7.4,6.6-13.8,11.4c0,0-31.9,24.3-68.7,38
					c-0.2,0.1-0.8,0.3-0.9,0.2c-0.2-0.3,8-4.6,10.6-6.1c18.3-10.6,27.4-15.8,36.8-22.7c7.7-5.7,13.7-10.9,18.9-15.5
					c5.9-5.2,8.9-7.8,12.5-11.6c6-6.5,17.9-19.3,14.3-26.9c-0.9-2-2.6-3.2-3.6-3.9c-4.5-3.1-9.8-2.5-12.7-2.1
					C441,563.5,437.2,566.2,437,565.9z"/>
			</g>
			<path class="st12" d="M570.4,717.9H200.9c-8.2,0-14.8-6.6-14.8-14.8V527.9c0-13.4,10.9-24.3,24.3-24.3h360
				c8.2,0,14.8,6.6,14.8,14.8v184.8C585.2,711.3,578.6,717.9,570.4,717.9z"/>
		</g>
	</g>
</g>
<g id="Stars">
	<path class="st13" d="M661.4,457.4c-3.2,3-6.5,4.1-8.2,4.6c1.9,0.6,7.1,2.5,10.8,7.9c2.1,3.1,2.9,6.1,3.2,8c0.5-2,1.8-5.5,4.6-8.9
		c2.7-3.2,5.6-5,7.4-5.9c-1.5-0.4-4.7-1.4-7.6-4.3c-4-4-4.7-8.8-4.8-10.3C666.3,450.1,665,454,661.4,457.4z"/>
	<g>
		<path class="st14" d="M636.5,363.2c-0.4-1.4-1-2.8-1.8-4c-1.8-2.8-4.3-4.4-6.3-5.3c1.4-0.3,3.1-1,4.7-2.5c1.6-1.5,2.5-3.2,3-4.7
			c0.4,1.4,1.1,3,2.4,4.4c1.6,1.8,3.9,3,6.3,3.4c-2,1-3.8,2.3-5.3,3.8C638.4,359.9,637.3,361.5,636.5,363.2z"/>
		<path class="st14" d="M636.2,348.3c0.4,1.1,1.1,2.3,2.1,3.3c1.4,1.5,3.2,2.6,5.3,3.2c-1.6,0.9-3,2-4.2,3.3c-1.1,1.1-2,2.4-2.7,3.8
			c-0.4-1-0.9-2-1.5-2.9c-1.6-2.4-3.6-3.9-5.4-4.9c1.2-0.4,2.5-1.1,3.7-2.2C634.8,350.8,635.6,349.5,636.2,348.3 M636.3,343.4
			c0,0.1,0,0.1,0,0.2C636.3,343.5,636.3,343.5,636.3,343.4L636.3,343.4z M636.3,343.6c0,1.1-0.4,4.8-3.4,7.5
			c-2.6,2.3-5.5,2.6-6.4,2.6c1.3,0.4,5.3,1.7,7.9,5.8c1.4,2.1,1.8,4.1,2,5.4c0.5-1.4,1.6-3.8,3.7-6.1c2.6-2.8,5.5-4,7-4.5
			c0,0,0,0,0,0c-0.3,0-0.6,0-1.1-0.1c-0.9-0.1-4.3-0.5-6.9-3.4C636.4,348.1,636.3,344.7,636.3,343.6L636.3,343.6z"/>
	</g>
	<path class="st13" d="M663.8,293.4c-2.5,2.3-5.1,3.2-6.4,3.6c1.4,0.5,5.5,2,8.4,6.1c1.7,2.4,2.3,4.8,2.5,6.2c0.4-1.6,1.4-4.3,3.6-7
		c2.1-2.5,4.3-3.9,5.8-4.6c-1.2-0.3-3.7-1.1-5.9-3.3c-3.1-3.1-3.7-6.9-3.8-8C667.7,287.8,666.6,290.8,663.8,293.4z"/>
	<path class="st13" d="M571.6,204.2c-2.5,2.3-5.1,3.2-6.4,3.6c1.4,0.5,5.5,2,8.4,6.1c1.7,2.4,2.3,4.8,2.5,6.2c0.4-1.6,1.4-4.3,3.6-7
		c2.1-2.5,4.3-3.9,5.8-4.6c-1.2-0.3-3.7-1.1-5.9-3.3c-3.1-3.1-3.7-6.9-3.8-8C575.5,198.5,574.5,201.6,571.6,204.2z"/>
	<path class="st13" d="M150.2,377c-2.5,2.3-5.1,3.2-6.4,3.6c1.4,0.5,5.5,2,8.4,6.1c1.7,2.4,2.3,4.8,2.5,6.2c0.4-1.6,1.4-4.3,3.6-7
		c2.1-2.5,4.3-3.9,5.8-4.6c-1.2-0.3-3.7-1.1-5.9-3.3c-3.1-3.1-3.7-6.9-3.8-8C154.1,371.4,153,374.4,150.2,377z"/>
	<path class="st13" d="M105.4,458.1c-3.3,3.1-6.8,4.3-8.5,4.7c1.9,0.6,7.4,2.6,11.2,8.1c2.2,3.2,3,6.4,3.3,8.3
		c0.6-2.1,1.8-5.7,4.8-9.3c2.8-3.3,5.8-5.2,7.7-6.2c-1.6-0.4-4.9-1.5-7.8-4.4c-4.2-4.1-4.9-9.1-5-10.6
		C110.5,450.6,109.2,454.6,105.4,458.1z"/>
	<path class="st13" d="M110.1,289.9c-2.5,2.3-5.1,3.2-6.4,3.6c1.4,0.5,5.5,2,8.4,6.1c1.7,2.4,2.3,4.8,2.5,6.2c0.4-1.6,1.4-4.3,3.6-7
		c2.1-2.5,4.3-3.9,5.8-4.6c-1.2-0.3-3.7-1.1-5.9-3.3c-3.1-3.1-3.7-6.9-3.8-8C113.9,284.2,112.9,287.3,110.1,289.9z"/>
	<path class="st13" d="M186.6,204.2c-2.5,2.3-5.1,3.2-6.4,3.6c1.4,0.5,5.5,2,8.4,6.1c1.7,2.4,2.3,4.8,2.5,6.2c0.4-1.6,1.4-4.3,3.6-7
		c2.1-2.5,4.3-3.9,5.8-4.6c-1.2-0.3-3.7-1.1-5.9-3.3c-3.1-3.1-3.7-6.9-3.8-8C190.5,198.6,189.4,201.6,186.6,204.2z"/>
</g>
<g id="Space_CAMP" class="st15">
	<text transform="matrix(1 0 0 1 -31.4533 934.7065)" style="display:inline; font-family:'SpaceAge'; font-size:192px;">Space</text>
	<text transform="matrix(1 0 0 1 71.1049 1070.2043)" style="display:inline; font-family:'SpaceAge'; font-size:186px;">Camp</text>
</g>
</svg>
